<svg id="Icon_Search_Filled" data-name="Icon / Search / Filled" xmlns="http://www.w3.org/2000/svg" width="19" height="19" viewBox="0 0 19 19">
  <rect id="Box" width="19" height="19" fill="none"/>
  <path id="Path_402" data-name="Path 402" d="M916.928-1407.144h-.567l-.2-.2a4.62,4.62,0,0,0,1.12-3.018,4.642,4.642,0,0,0-4.642-4.642,4.642,4.642,0,0,0-4.642,4.642,4.642,4.642,0,0,0,4.642,4.642,4.62,4.62,0,0,0,3.017-1.118l.2.2v.566l3.569,3.564,1.065-1.065-3.562-3.571Zm-4.286,0a3.213,3.213,0,0,1-3.214-3.214,3.213,3.213,0,0,1,3.214-3.214,3.214,3.214,0,0,1,3.214,3.214,3.213,3.213,0,0,1-3.214,3.214Z" transform="translate(-905 1418)" fill="#fff" fill-rule="evenodd"/>
</svg>
