<svg xmlns="http://www.w3.org/2000/svg" width="32" height="32" viewBox="0 0 32 32">
  <g id="Group_32" data-name="Group 32" transform="translate(-1254 -17)">
    <g id="Group_1" data-name="Group 1" transform="translate(18 -31)">
      <rect id="Rectangle_4" data-name="Rectangle 4" width="32" height="32" transform="translate(1236 48)" fill="#981884"/>
      <rect id="Box" width="24" height="24" transform="translate(1240 52)" fill="none"/>
      <path id="Path_1990" data-name="Path 1990" d="M972-66.1a2.1,2.1,0,0,1,2.1,2.1,2.1,2.1,0,0,1-2.1,2.1,2.1,2.1,0,0,1-2.1-2.1A2.1,2.1,0,0,1,972-66.1Zm0,9c2.97,0,6.1,1.46,6.1,2.1v1.1H965.9V-55C965.9-55.64,969.03-57.1,972-57.1ZM972-68a4,4,0,0,0-4,4,4,4,0,0,0,4,4,4,4,0,0,0,4-4A4,4,0,0,0,972-68Zm0,9c-2.67,0-8,1.34-8,4v3h16v-3C980-57.66,974.67-59,972-59Z" transform="translate(280 124)" fill="#fff"/>
    </g>
  </g>
</svg>
